Coordinates
version=1
nRows=19
nColumns=24
inDegrees=yes

Units are S.I. units (second, meters, Newtons, ...)
Angles are in degrees.

endheader
time	pelvis_tilt	pelvis_list	pelvis_rotation	pelvis_tx	pelvis_ty	pelvis_tz	hip_flexion_r	hip_adduction_r	hip_rotation_r	knee_angle_r	ankle_angle_r	subtalar_angle_r	mtp_angle_r	hip_flexion_l	hip_adduction_l	hip_rotation_l	knee_angle_l	ankle_angle_l	subtalar_angle_l	mtp_angle_l	lumbar_extension	lumbar_bending	lumbar_rotation
      5.57000000	     -2.12866931	     -0.04337173	     -1.30779984	      1.34098339	      1.03748162	     -0.23494386	     -2.87432255	      4.78962674	     12.40691901	     -7.23116035	     13.24704061	    -15.02741622	      0.00000000	     28.45184313	     -4.47621063	    -15.75168107	    -50.24760560	      7.97501158	     -4.69355722	      0.00000000	    -11.20497166	     -1.06868618	      3.14435302
      5.57500000	     -2.04607645	      0.01436825	     -1.52324275	      1.34689736	      1.03740253	     -0.23498191	     -3.48152589	      4.67128415	     12.84015730	     -6.90587811	     13.09535186	    -15.37173306	      0.00000000	     28.41983149	     -4.37796854	    -15.99497823	    -48.61059677	      8.32696513	     -4.31358849	      0.00000000	    -11.33957310	     -1.18971582	      3.42578847
      5.58000000	     -2.03934291	      0.03086328	     -1.63103905	      1.35284907	      1.03713419	     -0.23519322	     -3.99603084	      4.60016892	     13.06787200	     -6.60594469	     12.99532695	    -15.60971320	      0.00000000	     28.46635167	     -4.26246538	    -16.10608600	    -46.93833135	      8.64124106	     -3.90698737	      0.00000000	    -11.37852826	     -1.24565980	      3.58409406
      5.58500000	     -2.03532307	      0.03384306	     -1.75678879	      1.35882648	      1.03681370	     -0.23540368	     -4.50160060	      4.53814055	     13.29160279	     -6.31948814	     12.90041704	    -15.81333285	      0.00000000	     28.48193372	     -4.16678280	    -16.23690570	    -45.20947399	      8.90151521	     -3.50333949	      0.00000000	    -11.41465750	     -1.28282373	      3.77308352
      5.59000000	     -2.02676168	      0.02106543	     -1.86856578	      1.36484842	      1.03642056	     -0.23564686	     -5.00836938	      4.49081263	     13.50250555	     -6.04850429	     12.82985906	    -16.00499547	      0.00000000	     28.46208693	     -4.07177058	    -16.34253395	    -43.42521381	      9.13699722	     -3.10606250	      0.00000000	    -11.45229969	     -1.30177189	      3.94982953
      5.59500000	     -2.14216004	     -0.04674180	     -1.91390570	      1.37086482	      1.03575912	     -0.23600469	     -5.35911155	      4.51188916	     13.54638925	     -5.82779574	     12.84209570	    -16.06315281	      0.00000000	     28.57309812	     -3.99622323	    -16.33965422	    -41.62220754	      9.34969698	     -2.67912562	      0.00000000	    -11.34618472	     -1.23920176	      4.06402188
      5.60000000	     -2.02038349	     -0.05336719	     -2.07890630	      1.37701604	      1.03541944	     -0.23622143	     -5.99967907	      4.43700064	     13.86950047	     -5.54873013	     12.75956827	    -16.28029640	      0.00000000	     28.34293572	     -3.90284906	    -16.51163736	    -39.70199626	      9.49493720	     -2.33032854	      0.00000000	    -11.50724288	     -1.27409497	      4.29634335
      5.60500000	     -1.99274995	     -0.10902833	     -2.14957811	      1.38316923	      1.03485586	     -0.23660118	     -6.52488738	      4.42449321	     14.02127342	     -5.30247462	     12.72124044	    -16.41284126	      0.00000000	     28.21487614	     -3.80598775	    -16.54049140	    -37.76588672	      9.61435117	     -1.93255561	      0.00000000	    -11.56276827	     -1.22682874	      4.44035552
      5.61000000	     -1.98784187	     -0.18129675	     -2.23311623	      1.38935337	      1.03421069	     -0.23698437	     -7.01623359	      4.42606599	     14.15843516	     -5.08175703	     12.71807653	    -16.47835983	      0.00000000	     28.08164027	     -3.72493951	    -16.55842188	    -35.78772992	      9.67935680	     -1.54047801	      0.00000000	    -11.58733068	     -1.16135737	      4.60112156
      5.61500000	     -2.06285148	     -0.28253928	     -2.27829650	      1.39556986	      1.03338901	     -0.23741970	     -7.41584481	      4.46401857	     14.25009759	     -4.88537932	     12.74936289	    -16.48151249	      0.00000000	     28.02343256	     -3.65582843	    -16.50099282	    -33.79637568	      9.69627428	     -1.09561021	      0.00000000	    -11.50910509	     -1.05261058	      4.71151348
      5.62000000	     -1.95339866	     -0.35704703	     -2.38270245	      1.40179675	      1.03280409	     -0.23785376	     -8.00818500	      4.45207619	     14.40299996	     -4.69349077	     12.75993732	    -16.51367916	      0.00000000	     27.71177903	     -3.55806501	    -16.48687686	    -31.71574798	      9.63854744	     -0.76317642	      0.00000000	    -11.66783503	     -0.98398660	      4.91456582
      5.62500000	     -2.02618616	     -0.47202148	     -2.42984288	      1.40809674	      1.03188229	     -0.23833680	     -8.40159001	      4.49858120	     14.50324773	     -4.53031141	     12.82156605	    -16.48335206	      0.00000000	     27.59677509	     -3.48606831	    -16.36753185	    -29.65486487	      9.55963024	     -0.35404958	      0.00000000	    -11.58312656	     -0.85671673	      5.02184543
      5.63000000	     -2.01314458	     -0.57430052	     -2.51380374	      1.41438507	      1.03106544	     -0.23886825	     -8.87300259	      4.51505380	     14.63018772	     -4.39229365	     12.89434319	    -16.41952851	      0.00000000	     27.35096532	     -3.39349250	    -16.23366176	    -27.53653638	      9.39106763	     -0.04632683	      0.00000000	    -11.62147863	     -0.73763874	      5.18433971
      5.63500000	     -1.98368598	     -0.69475911	     -2.58231150	      1.42071438	      1.03022305	     -0.23943342	     -9.35642900	      4.55194053	     14.71291235	     -4.26872686	     12.96373663	    -16.33956079	      0.00000000	     27.07090764	     -3.30992324	    -16.05007279	    -25.41174113	      9.19713977	      0.25364151	      0.00000000	    -11.67594565	     -0.59234567	      5.33826037
      5.64000000	     -2.01450039	     -0.84321102	     -2.65167877	      1.42704321	      1.02925678	     -0.23999025	     -9.75716394	      4.62318306	     14.81757605	     -4.19253016	     13.05445257	    -16.23600134	      0.00000000	     26.84519089	     -3.25537285	    -15.78480419	    -23.29623853	      8.94808291	      0.52373362	      0.00000000	    -11.65617887	     -0.41734271	      5.48679437
      5.64500000	     -1.98250586	     -0.96627385	     -2.71638360	      1.43349102	      1.02835306	     -0.24055095	    -10.22484755	      4.66607868	     14.84460708	     -4.12044522	     13.15503733	    -16.09492792	      0.00000000	     26.51820633	     -3.16777393	    -15.46959448	    -21.15935015	      8.65923895	      0.73083996	      0.00000000	    -11.69245900	     -0.28078924	      5.62420920
      5.65000000	     -2.00246644	     -1.11631268	     -2.78526559	      1.43992592	      1.02735447	     -0.24115046	    -10.62007316	      4.73462751	     14.92515808	     -4.09203498	     13.27231503	    -15.92380871	      0.00000000	     26.23999469	     -3.10910769	    -15.06374913	    -19.04874516	      8.30848255	      0.84852969	      0.00000000	    -11.68083884	     -0.09946592	      5.75981051
      5.65500000	     -1.99152805	     -1.25610203	     -2.83713135	      1.44640077	      1.02636743	     -0.24178976	    -11.03653356	      4.79102641	     14.98637403	     -4.09512398	     13.43373127	    -15.69823633	      0.00000000	     25.91138828	     -3.03185024	    -14.54116151	    -16.95147579	      7.89585230	      0.86664043	      0.00000000	    -11.70328957	      0.07232925	      5.86094185
      5.66000000	     -2.05504641	     -1.47695841	     -2.95855170	      1.45282352	      1.02527614	     -0.24230067	    -11.34639064	      4.93085919	     15.14760424	     -4.15940964	     13.55385528	    -15.48684980	      0.00000000	     25.66071028	     -3.08281611	    -13.99904536	    -14.92239073	      7.46435367	      0.77425380	      0.00000000	    -11.64522517	      0.32686676	      6.05413558
